<?xml version="1.0" encoding="iso-8859-1"?>
<!-- Generator: Adobe Illustrator 18.0.0, SVG Export Plug-In . SVG Version: 6.00 Build 0)  -->
<!DOCTYPE svg PUBLIC "-//W3C//DTD SVG 1.1//EN" "http://www.w3.org/Graphics/SVG/1.1/DTD/svg11.dtd">
<svg version="1.1" id="Capa_1" xmlns="http://www.w3.org/2000/svg" xmlns:xlink="http://www.w3.org/1999/xlink" x="0px" y="0px"
	 viewBox="0 0 495.944 495.944" style="enable-background:new 0 0 495.944 495.944;" xml:space="preserve">
<g id="XMLID_328_">
	<path id="XMLID_330_" d="M363.547,28.901c-49.679,0-92.914,27.394-115.555,67.864c-22.679-40.47-65.911-67.864-115.576-67.864
		C59.283,28.901,0,88.191,0,161.315c0,151.841,247.992,305.727,247.992,305.727s247.952-153.167,247.952-305.727
		C495.944,88.191,436.667,28.901,363.547,28.901z M247.992,389.812c0,0-160.569-99.637-160.569-197.951
		c0-47.347,38.383-85.731,85.736-85.731c32.146,0,60.138,17.738,74.833,43.936c14.655-26.197,42.649-43.936,74.812-43.936
		c47.339,0,85.723,38.385,85.723,85.731C408.526,290.643,247.992,389.812,247.992,389.812z" fill="#ffffff"/>
	<path id="XMLID_329_" d="M286.793,174.39c-16.694,0-31.208,9.204-38.801,22.79c-7.632-13.586-22.142-22.79-38.823-22.79
		c-24.564,0-44.479,19.912-44.479,44.47c0,51.008,83.302,102.692,83.302,102.692s83.266-51.442,83.266-102.692
		C331.258,194.302,311.344,174.39,286.793,174.39z" fill="#8B0000"/>
</g>
<g>
</g>
<g>
</g>
<g>
</g>
<g>
</g>
<g>
</g>
<g>
</g>
<g>
</g>
<g>
</g>
<g>
</g>
<g>
</g>
<g>
</g>
<g>
</g>
<g>
</g>
<g>
</g>
<g>
</g>
</svg>
